{
    "asset" : {
        "generator" : "Khronos glTF Blender I/O v1.0.5",
        "version" : "2.0"
    },
    "scene" : 0,
    "scenes" : [
        {
            "name" : "Scene",
            "nodes" : [
                0
            ]
        }
    ],
    "nodes" : [
        {
            "mesh" : 0,
            "name" : "Street environment_V01",
            "rotation" : [
                0.7071068286895752,
                0,
                0,
                0.7071067094802856
            ]
        }
    ],
    "materials" : [
        {
            "doubleSided" : true,
            "name" : "06___Default",
            "pbrMetallicRoughness" : {
                "baseColorTexture" : {
                    "index" : 0,
                    "texCoord" : 0
                },
                "metallicFactor" : 0,
                "roughnessFactor" : 0.8945907354354858
            }
        },
        {
            "doubleSided" : true,
            "name" : "Building_dnt",
            "pbrMetallicRoughness" : {
                "baseColorTexture" : {
                    "index" : 1,
                    "texCoord" : 0
                },
                "metallicFactor" : 0,
                "roughnessFactor" : 0.8945907354354858
            }
        },
        {
            "doubleSided" : true,
            "name" : "building_16",
            "pbrMetallicRoughness" : {
                "baseColorTexture" : {
                    "index" : 2,
                    "texCoord" : 0
                },
                "metallicFactor" : 0,
                "roughnessFactor" : 0.8945907354354858
            }
        },
        {
            "doubleSided" : true,
            "name" : "building_025",
            "pbrMetallicRoughness" : {
                "baseColorTexture" : {
                    "index" : 3,
                    "texCoord" : 0
                },
                "metallicFactor" : 0,
                "roughnessFactor" : 0.8945907354354858
            }
        },
        {
            "doubleSided" : true,
            "name" : "20___Defaulta",
            "pbrMetallicRoughness" : {
                "baseColorFactor" : [
                    0.27059999108314514,
                    0.27059999108314514,
                    0.27059999108314514,
                    1
                ],
                "metallicFactor" : 0,
                "roughnessFactor" : 0.8174257874488831
            }
        },
        {
            "doubleSided" : true,
            "name" : "20___Default",
            "pbrMetallicRoughness" : {
                "baseColorFactor" : [
                    0.30979999899864197,
                    0.45489999651908875,
                    0.058800000697374344,
                    1
                ],
                "metallicFactor" : 0,
                "roughnessFactor" : 0.8945907354354858
            }
        },
        {
            "doubleSided" : true,
            "name" : "orig_orig_orig_17___Default",
            "pbrMetallicRoughness" : {
                "baseColorTexture" : {
                    "index" : 4,
                    "texCoord" : 0
                },
                "metallicFactor" : 0,
                "roughnessFactor" : 0.6666666865348816
            }
        },
        {
            "doubleSided" : true,
            "name" : "3db___building_06",
            "pbrMetallicRoughness" : {
                "baseColorTexture" : {
                    "index" : 5,
                    "texCoord" : 0
                },
                "metallicFactor" : 0,
                "roughnessFactor" : 0.7788916826248169
            }
        },
        {
            "doubleSided" : true,
            "name" : "09___Default",
            "pbrMetallicRoughness" : {
                "baseColorTexture" : {
                    "index" : 6,
                    "texCoord" : 0
                },
                "metallicFactor" : 0,
                "roughnessFactor" : 0.8945907354354858
            }
        },
        {
            "doubleSided" : true,
            "name" : "Material__0",
            "pbrMetallicRoughness" : {
                "baseColorTexture" : {
                    "index" : 7,
                    "texCoord" : 0
                },
                "metallicFactor" : 0,
                "roughnessFactor" : 0.8945907354354858
            }
        },
        {
            "doubleSided" : true,
            "name" : "21___Default",
            "pbrMetallicRoughness" : {
                "baseColorFactor" : [
                    0.5881999731063843,
                    0.5881999731063843,
                    0.5881999731063843,
                    1
                ],
                "metallicFactor" : 0,
                "roughnessFactor" : 0.8945907354354858
            }
        }
    ],
    "meshes" : [
        {
            "name" : "Street environment_V01",
            "primitives" : [
                {
                    "attributes" : {
                        "POSITION" : 0,
                        "NORMAL" : 1,
                        "TEXCOORD_0" : 2
                    },
                    "indices" : 3,
                    "material" : 0
                },
                {
                    "attributes" : {
                        "POSITION" : 4,
                        "NORMAL" : 5,
                        "TEXCOORD_0" : 6
                    },
                    "indices" : 7,
                    "material" : 1
                },
                {
                    "attributes" : {
                        "POSITION" : 8,
                        "NORMAL" : 9,
                        "TEXCOORD_0" : 10
                    },
                    "indices" : 11,
                    "material" : 2
                },
                {
                    "attributes" : {
                        "POSITION" : 12,
                        "NORMAL" : 13,
                        "TEXCOORD_0" : 14
                    },
                    "indices" : 15,
                    "material" : 3
                },
                {
                    "attributes" : {
                        "POSITION" : 16,
                        "NORMAL" : 17,
                        "TEXCOORD_0" : 18
                    },
                    "indices" : 19,
                    "material" : 4
                },
                {
                    "attributes" : {
                        "POSITION" : 20,
                        "NORMAL" : 21,
                        "TEXCOORD_0" : 22
                    },
                    "indices" : 23,
                    "material" : 5
                },
                {
                    "attributes" : {
                        "POSITION" : 24,
                        "NORMAL" : 25,
                        "TEXCOORD_0" : 26
                    },
                    "indices" : 27,
                    "material" : 6
                },
                {
                    "attributes" : {
                        "POSITION" : 28,
                        "NORMAL" : 29,
                        "TEXCOORD_0" : 30
                    },
                    "indices" : 31,
                    "material" : 7
                },
                {
                    "attributes" : {
                        "POSITION" : 32,
                        "NORMAL" : 33,
                        "TEXCOORD_0" : 34
                    },
                    "indices" : 35,
                    "material" : 8
                },
                {
                    "attributes" : {
                        "POSITION" : 36,
                        "NORMAL" : 37,
                        "TEXCOORD_0" : 38
                    },
                    "indices" : 39,
                    "material" : 9
                },
                {
                    "attributes" : {
                        "POSITION" : 40,
                        "NORMAL" : 41,
                        "TEXCOORD_0" : 42
                    },
                    "indices" : 43,
                    "material" : 10
                }
            ]
        }
    ],
    "textures" : [
        {
            "source" : 0
        },
        {
            "source" : 1
        },
        {
            "source" : 2
        },
        {
            "source" : 3
        },
        {
            "source" : 4
        },
        {
            "source" : 5
        },
        {
            "source" : 6
        },
        {
            "source" : 7
        }
    ],
    "images" : [
        {
            "mimeType" : "image/png",
            "name" : "building03_c",
            "uri" : "building03_c.png"
        },
        {
            "mimeType" : "image/png",
            "name" : "Building_V02_C",
            "uri" : "Building_V02_C.png"
        },
        {
            "mimeType" : "image/png",
            "name" : "building_016_c",
            "uri" : "building_016_c.png"
        },
        {
            "mimeType" : "image/png",
            "name" : "building_025_c",
            "uri" : "building_025_c.png"
        },
        {
            "mimeType" : "image/png",
            "name" : "building 01_c",
            "uri" : "building 01_c.png"
        },
        {
            "mimeType" : "image/png",
            "name" : "building 06_ c",
            "uri" : "building 06_ c.png"
        },
        {
            "mimeType" : "image/png",
            "name" : "building05 _c",
            "uri" : "building05 _c.png"
        },
        {
            "mimeType" : "image/png",
            "name" : "Building_V01_C",
            "uri" : "Building_V01_C.png"
        }
    ],
    "accessors" : [
        {
            "bufferView" : 0,
            "componentType" : 5126,
            "count" : 11856,
            "max" : [
                -14.482399940490723,
                -14.599100112915039,
                0.005400000140070915
            ],
            "min" : [
                -48.355098724365234,
                -38.47669982910156,
                -5.900100231170654
            ],
            "type" : "VEC3"
        },
        {
            "bufferView" : 1,
            "componentType" : 5126,
            "count" : 11856,
            "type" : "VEC3"
        },
        {
            "bufferView" : 2,
            "componentType" : 5126,
            "count" : 11856,
            "type" : "VEC2"
        },
        {
            "bufferView" : 3,
            "componentType" : 5123,
            "count" : 18612,
            "type" : "SCALAR"
        },
        {
            "bufferView" : 4,
            "componentType" : 5126,
            "count" : 4149,
            "max" : [
                35.75239944458008,
                -14.687399864196777,
                0
            ],
            "min" : [
                10.781900405883789,
                -28.52429962158203,
                -4.707799911499023
            ],
            "type" : "VEC3"
        },
        {
            "bufferView" : 5,
            "componentType" : 5126,
            "count" : 4149,
            "type" : "VEC3"
        },
        {
            "bufferView" : 6,
            "componentType" : 5126,
            "count" : 4149,
            "type" : "VEC2"
        },
        {
            "bufferView" : 7,
            "componentType" : 5123,
            "count" : 8343,
            "type" : "SCALAR"
        },
        {
            "bufferView" : 8,
            "componentType" : 5126,
            "count" : 1272,
            "max" : [
                47.16310119628906,
                -29.199399948120117,
                0.002400000113993883
            ],
            "min" : [
                10.925100326538086,
                -45.78710174560547,
                -4.787899971008301
            ],
            "type" : "VEC3"
        },
        {
            "bufferView" : 9,
            "componentType" : 5126,
            "count" : 1272,
            "type" : "VEC3"
        },
        {
            "bufferView" : 10,
            "componentType" : 5126,
            "count" : 1272,
            "type" : "VEC2"
        },
        {
            "bufferView" : 11,
            "componentType" : 5123,
            "count" : 2052,
            "type" : "SCALAR"
        },
        {
            "bufferView" : 12,
            "componentType" : 5126,
            "count" : 796,
            "max" : [
                43.58250045776367,
                -14.740599632263184,
                0.08079999685287476
            ],
            "min" : [
                -24.10300064086914,
                -45.66339874267578,
                -3.432300090789795
            ],
            "type" : "VEC3"
        },
        {
            "bufferView" : 13,
            "componentType" : 5126,
            "count" : 796,
            "type" : "VEC3"
        },
        {
            "bufferView" : 14,
            "componentType" : 5126,
            "count" : 796,
            "type" : "VEC2"
        },
        {
            "bufferView" : 15,
            "componentType" : 5123,
            "count" : 1728,
            "type" : "SCALAR"
        },
        {
            "bufferView" : 16,
            "componentType" : 5126,
            "count" : 48,
            "max" : [
                47.92020034790039,
                47.2489013671875,
                1.0364999771118164
            ],
            "min" : [
                -48.53070068359375,
                -47.084800720214844,
                -0.06880000233650208
            ],
            "type" : "VEC3"
        },
        {
            "bufferView" : 17,
            "componentType" : 5126,
            "count" : 48,
            "type" : "VEC3"
        },
        {
            "bufferView" : 18,
            "componentType" : 5126,
            "count" : 48,
            "type" : "VEC2"
        },
        {
            "bufferView" : 19,
            "componentType" : 5123,
            "count" : 72,
            "type" : "SCALAR"
        },
        {
            "bufferView" : 20,
            "componentType" : 5126,
            "count" : 25,
            "max" : [
                48.330101013183594,
                47.070098876953125,
                0
            ],
            "min" : [
                -48.387298583984375,
                -47.12220001220703,
                0
            ],
            "type" : "VEC3"
        },
        {
            "bufferView" : 21,
            "componentType" : 5126,
            "count" : 25,
            "type" : "VEC3"
        },
        {
            "bufferView" : 22,
            "componentType" : 5126,
            "count" : 25,
            "type" : "VEC2"
        },
        {
            "bufferView" : 23,
            "componentType" : 5123,
            "count" : 96,
            "type" : "SCALAR"
        },
        {
            "bufferView" : 24,
            "componentType" : 5126,
            "count" : 9232,
            "max" : [
                47.76890182495117,
                45.5099983215332,
                0.0027000000700354576
            ],
            "min" : [
                21.645200729370117,
                32.797401428222656,
                -10.213600158691406
            ],
            "type" : "VEC3"
        },
        {
            "bufferView" : 25,
            "componentType" : 5126,
            "count" : 9232,
            "type" : "VEC3"
        },
        {
            "bufferView" : 26,
            "componentType" : 5126,
            "count" : 9232,
            "type" : "VEC2"
        },
        {
            "bufferView" : 27,
            "componentType" : 5123,
            "count" : 14904,
            "type" : "SCALAR"
        },
        {
            "bufferView" : 28,
            "componentType" : 5126,
            "count" : 9287,
            "max" : [
                -26.8075008392334,
                -27.55069923400879,
                -0.00039999998989515007
            ],
            "min" : [
                -46.6968994140625,
                -46.77920150756836,
                -7.291600227355957
            ],
            "type" : "VEC3"
        },
        {
            "bufferView" : 29,
            "componentType" : 5126,
            "count" : 9287,
            "type" : "VEC3"
        },
        {
            "bufferView" : 30,
            "componentType" : 5126,
            "count" : 9287,
            "type" : "VEC2"
        },
        {
            "bufferView" : 31,
            "componentType" : 5123,
            "count" : 16374,
            "type" : "SCALAR"
        },
        {
            "bufferView" : 32,
            "componentType" : 5126,
            "count" : 18929,
            "max" : [
                47.60100173950195,
                42.444698333740234,
                0.01810000091791153
            ],
            "min" : [
                -46.8672981262207,
                9.972700119018555,
                -8.291000366210938
            ],
            "type" : "VEC3"
        },
        {
            "bufferView" : 33,
            "componentType" : 5126,
            "count" : 18929,
            "type" : "VEC3"
        },
        {
            "bufferView" : 34,
            "componentType" : 5126,
            "count" : 18929,
            "type" : "VEC2"
        },
        {
            "bufferView" : 35,
            "componentType" : 5123,
            "count" : 35022,
            "type" : "SCALAR"
        },
        {
            "bufferView" : 36,
            "componentType" : 5126,
            "count" : 34336,
            "max" : [
                17.448400497436523,
                45.895999908447266,
                0.003599999938160181
            ],
            "min" : [
                -46.32889938354492,
                26.583499908447266,
                -9.851799964904785
            ],
            "type" : "VEC3"
        },
        {
            "bufferView" : 37,
            "componentType" : 5126,
            "count" : 34336,
            "type" : "VEC3"
        },
        {
            "bufferView" : 38,
            "componentType" : 5126,
            "count" : 34336,
            "type" : "VEC2"
        },
        {
            "bufferView" : 39,
            "componentType" : 5123,
            "count" : 49752,
            "type" : "SCALAR"
        },
        {
            "bufferView" : 40,
            "componentType" : 5126,
            "count" : 1440,
            "max" : [
                17.848800659179688,
                18.498300552368164,
                1.0364999771118164
            ],
            "min" : [
                -22.20159912109375,
                -21.552099227905273,
                -0.08460000157356262
            ],
            "type" : "VEC3"
        },
        {
            "bufferView" : 41,
            "componentType" : 5126,
            "count" : 1440,
            "type" : "VEC3"
        },
        {
            "bufferView" : 42,
            "componentType" : 5126,
            "count" : 1440,
            "type" : "VEC2"
        },
        {
            "bufferView" : 43,
            "componentType" : 5123,
            "count" : 2160,
            "type" : "SCALAR"
        }
    ],
    "bufferViews" : [
        {
            "buffer" : 0,
            "byteLength" : 142272,
            "byteOffset" : 0
        },
        {
            "buffer" : 0,
            "byteLength" : 142272,
            "byteOffset" : 142272
        },
        {
            "buffer" : 0,
            "byteLength" : 94848,
            "byteOffset" : 284544
        },
        {
            "buffer" : 0,
            "byteLength" : 37224,
            "byteOffset" : 379392
        },
        {
            "buffer" : 0,
            "byteLength" : 49788,
            "byteOffset" : 416616
        },
        {
            "buffer" : 0,
            "byteLength" : 49788,
            "byteOffset" : 466404
        },
        {
            "buffer" : 0,
            "byteLength" : 33192,
            "byteOffset" : 516192
        },
        {
            "buffer" : 0,
            "byteLength" : 16686,
            "byteOffset" : 549384
        },
        {
            "buffer" : 0,
            "byteLength" : 15264,
            "byteOffset" : 566072
        },
        {
            "buffer" : 0,
            "byteLength" : 15264,
            "byteOffset" : 581336
        },
        {
            "buffer" : 0,
            "byteLength" : 10176,
            "byteOffset" : 596600
        },
        {
            "buffer" : 0,
            "byteLength" : 4104,
            "byteOffset" : 606776
        },
        {
            "buffer" : 0,
            "byteLength" : 9552,
            "byteOffset" : 610880
        },
        {
            "buffer" : 0,
            "byteLength" : 9552,
            "byteOffset" : 620432
        },
        {
            "buffer" : 0,
            "byteLength" : 6368,
            "byteOffset" : 629984
        },
        {
            "buffer" : 0,
            "byteLength" : 3456,
            "byteOffset" : 636352
        },
        {
            "buffer" : 0,
            "byteLength" : 576,
            "byteOffset" : 639808
        },
        {
            "buffer" : 0,
            "byteLength" : 576,
            "byteOffset" : 640384
        },
        {
            "buffer" : 0,
            "byteLength" : 384,
            "byteOffset" : 640960
        },
        {
            "buffer" : 0,
            "byteLength" : 144,
            "byteOffset" : 641344
        },
        {
            "buffer" : 0,
            "byteLength" : 300,
            "byteOffset" : 641488
        },
        {
            "buffer" : 0,
            "byteLength" : 300,
            "byteOffset" : 641788
        },
        {
            "buffer" : 0,
            "byteLength" : 200,
            "byteOffset" : 642088
        },
        {
            "buffer" : 0,
            "byteLength" : 192,
            "byteOffset" : 642288
        },
        {
            "buffer" : 0,
            "byteLength" : 110784,
            "byteOffset" : 642480
        },
        {
            "buffer" : 0,
            "byteLength" : 110784,
            "byteOffset" : 753264
        },
        {
            "buffer" : 0,
            "byteLength" : 73856,
            "byteOffset" : 864048
        },
        {
            "buffer" : 0,
            "byteLength" : 29808,
            "byteOffset" : 937904
        },
        {
            "buffer" : 0,
            "byteLength" : 111444,
            "byteOffset" : 967712
        },
        {
            "buffer" : 0,
            "byteLength" : 111444,
            "byteOffset" : 1079156
        },
        {
            "buffer" : 0,
            "byteLength" : 74296,
            "byteOffset" : 1190600
        },
        {
            "buffer" : 0,
            "byteLength" : 32748,
            "byteOffset" : 1264896
        },
        {
            "buffer" : 0,
            "byteLength" : 227148,
            "byteOffset" : 1297644
        },
        {
            "buffer" : 0,
            "byteLength" : 227148,
            "byteOffset" : 1524792
        },
        {
            "buffer" : 0,
            "byteLength" : 151432,
            "byteOffset" : 1751940
        },
        {
            "buffer" : 0,
            "byteLength" : 70044,
            "byteOffset" : 1903372
        },
        {
            "buffer" : 0,
            "byteLength" : 412032,
            "byteOffset" : 1973416
        },
        {
            "buffer" : 0,
            "byteLength" : 412032,
            "byteOffset" : 2385448
        },
        {
            "buffer" : 0,
            "byteLength" : 274688,
            "byteOffset" : 2797480
        },
        {
            "buffer" : 0,
            "byteLength" : 99504,
            "byteOffset" : 3072168
        },
        {
            "buffer" : 0,
            "byteLength" : 17280,
            "byteOffset" : 3171672
        },
        {
            "buffer" : 0,
            "byteLength" : 17280,
            "byteOffset" : 3188952
        },
        {
            "buffer" : 0,
            "byteLength" : 11520,
            "byteOffset" : 3206232
        },
        {
            "buffer" : 0,
            "byteLength" : 4320,
            "byteOffset" : 3217752
        }
    ],
    "buffers" : [
        {
            "byteLength" : 3222072,
            "uri" : "Street environment_V01.bin"
        }
    ]
}
