{
    "asset" : {
        "generator" : "Khronos glTF Blender I/O v1.0.5",
        "version" : "2.0"
    },
    "scene" : 0,
    "scenes" : [
        {
            "name" : "Scene",
            "nodes" : [
                0
            ]
        }
    ],
    "nodes" : [
        {
            "mesh" : 0,
            "name" : "Capsule",
            "scale" : [
                0.10126682370901108,
                0.10126682370901108,
                0.10126682370901108
            ]
        }
    ],
    "materials" : [
        {
            "doubleSided" : true,
            "name" : "Capsule",
            "pbrMetallicRoughness" : {
                "baseColorTexture" : {
                    "index" : 0,
                    "texCoord" : 0
                },
                "metallicRoughnessTexture" : {
                    "index" : 1,
                    "texCoord" : 0
                }
            }
        }
    ],
    "meshes" : [
        {
            "name" : "Capsule",
            "primitives" : [
                {
                    "attributes" : {
                        "POSITION" : 0,
                        "NORMAL" : 1,
                        "TEXCOORD_0" : 2
                    },
                    "indices" : 3,
                    "material" : 0
                }
            ]
        }
    ],
    "textures" : [
        {
            "source" : 0
        },
        {
            "source" : 1
        }
    ],
    "images" : [
        {
            "bufferView" : 4,
            "mimeType" : "image/png",
            "name" : "CapsuleAlbeldo"
        },
        {
            "bufferView" : 5,
            "mimeType" : "image/png",
            "name" : "CapsuleMetalness-Capsule Roughness"
        }
    ],
    "accessors" : [
        {
            "bufferView" : 0,
            "componentType" : 5126,
            "count" : 818,
            "max" : [
                1.5688672065734863,
                4.5150465965271,
                1.5688672065734863
            ],
            "min" : [
                -1.5688672065734863,
                -4.5150465965271,
                -1.5688672065734863
            ],
            "type" : "VEC3"
        },
        {
            "bufferView" : 1,
            "componentType" : 5126,
            "count" : 818,
            "type" : "VEC3"
        },
        {
            "bufferView" : 2,
            "componentType" : 5126,
            "count" : 818,
            "type" : "VEC2"
        },
        {
            "bufferView" : 3,
            "componentType" : 5123,
            "count" : 4464,
            "type" : "SCALAR"
        }
    ],
    "bufferViews" : [
        {
            "buffer" : 0,
            "byteLength" : 9816,
            "byteOffset" : 0
        },
        {
            "buffer" : 0,
            "byteLength" : 9816,
            "byteOffset" : 9816
        },
        {
            "buffer" : 0,
            "byteLength" : 6544,
            "byteOffset" : 19632
        },
        {
            "buffer" : 0,
            "byteLength" : 8928,
            "byteOffset" : 26176
        },
        {
            "buffer" : 0,
            "byteLength" : 7078,
            "byteOffset" : 35104
        },
        {
            "buffer" : 0,
            "byteLength" : 8117,
            "byteOffset" : 42184
        }
    ],
    "buffers" : [
        {
            "byteLength" : 50304,
            "uri" : "data:application/octet-stream;base64,"
        }
    ]
}
